<?xml version="1.0" standalone="no"?>
<svg viewBox="0 0 200 200" xmlns="http://www.w3.org/2000/svg">
  <path fill="#FF6F1D" d="M33.4,-56.6C39.5,-48.1,37.9,-32.4,40.8,-20.3C43.8,-8.3,51.2,0.1,55.1,11.5C59,22.9,59.5,37.5,52.9,46.7C46.3,56,32.5,60.1,19,63.5C5.5,66.8,-7.9,69.6,-17.3,64.4C-26.8,59.1,-32.3,45.9,-42.4,35.9C-52.6,25.8,-67.4,18.8,-67.9,10.2C-68.5,1.6,-54.9,-8.6,-46.8,-19.3C-38.6,-29.9,-36,-40.9,-29.1,-49.1C-22.2,-57.3,-11.1,-62.6,1.3,-64.6C13.7,-66.6,27.3,-65.2,33.4,-56.6Z" transform="translate(100 100)" />
</svg>
