<?xml version="1.0" standalone="no"?>
<svg viewBox="0 0 200 200" xmlns="http://www.w3.org/2000/svg">
  <path fill="#FF6F1D" d="M43.4,-68C52.6,-61.5,54,-43.4,61.6,-27.8C69.1,-12.2,82.9,0.8,78.6,9.3C74.2,17.7,51.8,21.6,40,33.9C28.2,46.3,27,67.1,18.2,76.1C9.4,85.2,-7.1,82.6,-22.8,77.9C-38.6,73.2,-53.7,66.4,-57.6,54.2C-61.5,42,-54.3,24.4,-57,8C-59.7,-8.5,-72.4,-23.7,-70.7,-34.3C-69,-45,-52.9,-51,-38.7,-55.3C-24.5,-59.5,-12.2,-61.9,2.4,-65.7C17.1,-69.4,34.1,-74.5,43.4,-68Z" transform="translate(100 100)" />
</svg>
